<svg id="Layer_1" data-name="Layer 1" xmlns="http://www.w3.org/2000/svg" viewBox="0 0 76.49 68.56"><defs><style>.cls-1{fill:#b40f87;}.cls-2{fill:#00a791;}.cls-3{fill:#1b4297;}</style></defs><g id="Vector_Smart_Object" data-name="Vector Smart Object"><path class="cls-1" d="M27.3,35.5c-.81.24-1.61.52-2.4.82A38.08,38.08,0,0,1,24.37,30,38.83,38.83,0,0,1,38.38.13V4.39A35.33,35.33,0,0,0,27.56,30a34.8,34.8,0,0,0,.28,4.35Zm35.79,30a35.31,35.31,0,0,1-22.32-7.94c-.83-.68-1.63-1.39-2.39-2.13a35.59,35.59,0,0,1-9.3-15.25l-1.9,4.21A39,39,0,0,0,36,57.55c.77.75,1.57,1.48,2.4,2.17a38.54,38.54,0,0,0,38.24,6.52l-3.73-2.13a35.32,35.32,0,0,1-9.8,1.38" transform="translate(-0.13 -0.13)"/><path class="cls-2" d="M36,57.55c.77.75,1.57,1.48,2.4,2.17A38.56,38.56,0,0,1,.13,66.24l3.73-2.13A35.38,35.38,0,0,0,36,57.55M52.39,30A38.86,38.86,0,0,0,38.38.13V4.39A35.36,35.36,0,0,1,49.19,30,34.93,34.93,0,0,1,49,33.81a35.34,35.34,0,0,1-2.36,9.36,35.87,35.87,0,0,1-8.24,12.25c.76.74,1.56,1.45,2.39,2.13A39.43,39.43,0,0,0,48.4,47a38.25,38.25,0,0,0,3.44-10.66,37.52,37.52,0,0,0,.55-6.4" transform="translate(-0.13 -0.13)"/><path class="cls-3" d="M76.62,66.24,72.9,64.11A35.75,35.75,0,0,0,51.75,39.76L56.92,50.9c2.34,5,3.72,6.17,6.12,6.55.27,0,.27,1.49,0,1.54H48.5c-.27-.05-.27-1.49,0-1.54,2.82-.32,3.83-1.87,2.08-5.7L48.4,47a38.25,38.25,0,0,0,3.44-10.66A38.93,38.93,0,0,1,76.62,66.24M49,33.81a35.34,35.34,0,0,1-2.36,9.36L44,37.57a35,35,0,0,0-5.65-.47,33.77,33.77,0,0,0-8.37,1l-.93,2.06-1.9,4.21-2.49,5.5c-2.51,5.54-1.28,7.14,1.6,7.67.26.11.21,1.39-.06,1.44H14.41c-.27-.05-.32-1.33-.06-1.44,2.08-.74,3.68-1.91,6.61-8.2l4.47-9.8A35.81,35.81,0,0,0,3.86,64.11L.13,66.24A39,39,0,0,1,24.9,36.32c.79-.3,1.59-.58,2.4-.82l.54-1.19,9.84-21.5a2.73,2.73,0,0,1,1.6,0Zm-6.54.32L37.08,22.51l-5.41,12a40.06,40.06,0,0,1,6.71-.59,38.68,38.68,0,0,1,4.06.23" transform="translate(-0.13 -0.13)"/></g></svg>